<svg width="166" height="30" viewBox="0 0 166 30" fill="none" xmlns="http://www.w3.org/2000/svg">
<path d="M28.8852 23V6.42271H31.9204V23H28.8852ZM34.9388 23L40.9159 6.42271H44.6283L50.6055 23H47.4301L46.0525 19.0775H39.4917L38.1141 23H34.9388ZM40.3789 16.4858H45.1653L42.7838 9.48134L40.3789 16.4858ZM52.8932 17.4431V14.9215H60.8317V17.4431H52.8932ZM64.5433 23V6.42271H68.6293L73.2055 19.2643L77.7818 6.42271H81.8677V23H78.8325V11.5593L74.6531 22.9767H71.7579L67.5786 11.5593V23H64.5433ZM91.4774 23.2802C90.2321 23.2802 89.1503 23.0156 88.232 22.4863C87.3136 21.9415 86.6054 21.1788 86.1073 20.1982C85.6092 19.2176 85.3601 18.0735 85.3601 16.766C85.3601 15.4585 85.6092 14.3222 86.1073 13.3572C86.6054 12.3765 87.3058 11.6138 88.2086 11.069C89.127 10.5242 90.1932 10.2518 91.4073 10.2518C92.5903 10.2518 93.6254 10.5164 94.5127 11.0457C95.4155 11.5749 96.1081 12.3376 96.5907 13.3338C97.0732 14.33 97.3145 15.5285 97.3145 16.9294V17.6065H88.4655C88.5277 18.6961 88.8235 19.5211 89.3527 20.0815C89.8975 20.6263 90.6135 20.8987 91.5007 20.8987C92.1701 20.8987 92.7226 20.7508 93.1585 20.455C93.6099 20.1437 93.9212 19.7157 94.0924 19.1709L97.151 19.3577C96.8086 20.5718 96.1315 21.5291 95.1197 22.2295C94.1235 22.93 92.9094 23.2802 91.4774 23.2802ZM88.4655 15.5986H94.2325C94.1702 14.5868 93.8823 13.8397 93.3686 13.3572C92.8549 12.8591 92.2012 12.61 91.4073 12.61C90.6135 12.61 89.952 12.8668 89.4227 13.3805C88.9091 13.8942 88.59 14.6335 88.4655 15.5986ZM90.1465 9.17781L91.5708 5.90905H94.5827L92.4814 9.17781H90.1465ZM105.021 23.2802C103.962 23.2802 103.044 23.0156 102.266 22.4863C101.503 21.9571 100.911 21.2022 100.491 20.2216C100.071 19.2409 99.8607 18.0891 99.8607 16.766C99.8607 15.4429 100.071 14.2911 100.491 13.3105C100.911 12.3298 101.511 11.5749 102.289 11.0457C103.067 10.5164 103.978 10.2518 105.021 10.2518C105.892 10.2518 106.655 10.4308 107.309 10.7888C107.978 11.1468 108.484 11.6527 108.826 12.3065V6.42271H111.815V23H108.967L108.896 21.1555C108.554 21.8248 108.04 22.3462 107.356 22.7198C106.671 23.0934 105.892 23.2802 105.021 23.2802ZM105.931 20.852C106.554 20.852 107.075 20.6963 107.496 20.385C107.931 20.0737 108.258 19.6145 108.476 19.0074C108.71 18.3848 108.826 17.6377 108.826 16.766C108.826 15.8788 108.71 15.1316 108.476 14.5246C108.258 13.9175 107.931 13.4583 107.496 13.147C107.075 12.8357 106.554 12.6801 105.931 12.6801C105.028 12.6801 104.305 13.0458 103.76 13.7774C103.231 14.4934 102.966 15.4896 102.966 16.766C102.966 18.0112 103.231 19.0074 103.76 19.7546C104.305 20.4862 105.028 20.852 105.931 20.852ZM121.185 23.2802C119.94 23.2802 118.858 23.0156 117.94 22.4863C117.022 21.9415 116.313 21.1788 115.815 20.1982C115.317 19.2176 115.068 18.0735 115.068 16.766C115.068 15.4585 115.317 14.3222 115.815 13.3572C116.313 12.3765 117.014 11.6138 117.917 11.069C118.835 10.5242 119.901 10.2518 121.115 10.2518C122.298 10.2518 123.333 10.5164 124.221 11.0457C125.123 11.5749 125.816 12.3376 126.299 13.3338C126.781 14.33 127.022 15.5285 127.022 16.9294V17.6065H118.173C118.236 18.6961 118.531 19.5211 119.061 20.0815C119.605 20.6263 120.321 20.8987 121.209 20.8987C121.878 20.8987 122.431 20.7508 122.866 20.455C123.318 20.1437 123.629 19.7157 123.8 19.1709L126.859 19.3577C126.517 20.5718 125.839 21.5291 124.828 22.2295C123.831 22.93 122.617 23.2802 121.185 23.2802ZM118.173 15.5986H123.94C123.878 14.5868 123.59 13.8397 123.077 13.3572C122.563 12.8591 121.909 12.61 121.115 12.61C120.321 12.61 119.66 12.8668 119.131 13.3805C118.617 13.8942 118.298 14.6335 118.173 15.5986ZM135.709 23.2802C134.464 23.2802 133.382 23.0156 132.464 22.4863C131.545 21.9415 130.829 21.1788 130.316 20.1982C129.818 19.2176 129.569 18.0735 129.569 16.766C129.569 15.4585 129.818 14.3222 130.316 13.3572C130.829 12.3765 131.545 11.6138 132.464 11.069C133.382 10.5242 134.464 10.2518 135.709 10.2518C136.768 10.2518 137.709 10.4386 138.534 10.8122C139.359 11.1858 140.029 11.7228 140.542 12.4232C141.072 13.1081 141.398 13.9486 141.523 14.9448L138.441 15.1083C138.317 14.3144 138.005 13.7152 137.507 13.3105C137.025 12.8902 136.425 12.6801 135.709 12.6801C134.744 12.6801 133.997 13.0458 133.468 13.7774C132.939 14.4934 132.674 15.4896 132.674 16.766C132.674 18.0579 132.939 19.0619 133.468 19.7779C133.997 20.4939 134.744 20.852 135.709 20.852C136.441 20.852 137.048 20.6418 137.53 20.2216C138.029 19.8013 138.332 19.1475 138.441 18.2603L141.523 18.4004C141.398 19.3966 141.079 20.2605 140.566 20.992C140.052 21.7236 139.383 22.2918 138.558 22.6965C137.733 23.0856 136.783 23.2802 135.709 23.2802ZM144.542 23V10.532H147.531V23H144.542ZM144.496 8.87428V6.21257H147.601V8.87428H144.496ZM151.929 23V10.532H154.637L154.754 14.0343L154.404 13.8942C154.528 13.0225 154.785 12.322 155.174 11.7928C155.563 11.2636 156.038 10.8745 156.599 10.6254C157.159 10.3764 157.774 10.2518 158.443 10.2518C159.361 10.2518 160.132 10.4542 160.755 10.8589C161.393 11.2636 161.875 11.8239 162.202 12.54C162.529 13.2404 162.692 14.0576 162.692 14.9915V23H159.704V15.9488C159.704 15.2484 159.634 14.6569 159.494 14.1743C159.354 13.6918 159.12 13.326 158.793 13.077C158.482 12.8124 158.062 12.6801 157.532 12.6801C156.739 12.6801 156.1 12.9602 155.618 13.5206C155.151 14.081 154.917 14.8904 154.917 15.9488V23H151.929Z" fill="#2C1FEA"/>
<path d="M12.4797 7.01207C12.4797 10.7082 15.442 13.7052 19.0949 13.7054H22.0141V16.3083H19.0949C15.4421 16.3084 12.4797 19.3055 12.4797 23.0016V26.3502H9.53952V23.0016C9.53946 19.3055 6.57724 16.3083 2.92431 16.3083H0V13.7054H2.92431C6.57729 13.7054 9.53952 10.7083 9.53952 7.01207V4.33611H12.4797V7.01207Z" fill="#2C1FEA"/>
</svg>
